<?xml version="1.0" encoding="UTF-8" standalone="no"?>
<!-- Generator: Adobe Illustrator 24.1.2, SVG Export Plug-In . SVG Version: 6.00 Build 0) -->
<svg version="1.1" xmlns="http://www.w3.org/2000/svg" xmlns:xlink="http://www.w3.org/1999/xlink" x="0px" y="0px" viewBox="0 0 143.15 364.25" style="enable-background:new 0 0 143.15 364.25;" xml:space="preserve" xmlns:inkscape="http://www.inkscape.org/namespaces/inkscape">
	<g id="Layer_1">
		<rect x="-215.54" y="31.89" style="display:none;fill:#009540;" width="82.2" height="300.47" />
		<rect y="0" style="fill:#E1E0E0;" width="143.15" height="364.25" />
		<circle style="display:none;fill:#FFFFFF;" cx="35.83" cy="8.5" r="4.25" />
		<circle style="display:none;fill:#FFFFFF;" cx="35.83" cy="355.75" r="4.25" />
		<!-- speed text -->
		<g>
			<path style="fill:#010000;" d="M13.54,38.15c-0.17-0.14-0.34-0.24-0.51-0.31c-0.17-0.07-0.34-0.1-0.5-0.1
		c-0.2,0-0.37,0.05-0.5,0.14s-0.19,0.22-0.19,0.38c0,0.11,0.03,0.19,0.1,0.26c0.06,0.07,0.15,0.13,0.25,0.18
		c0.1,0.05,0.22,0.09,0.35,0.13c0.13,0.04,0.26,0.08,0.39,0.12c0.51,0.17,0.89,0.4,1.12,0.68c0.24,0.29,0.36,0.66,0.36,1.12
		c0,0.31-0.05,0.59-0.16,0.84c-0.1,0.25-0.26,0.47-0.46,0.64c-0.2,0.18-0.45,0.32-0.74,0.42c-0.29,0.1-0.62,0.15-0.99,0.15
		c-0.76,0-1.47-0.23-2.12-0.68l0.67-1.26c0.23,0.21,0.47,0.36,0.7,0.46c0.23,0.1,0.46,0.15,0.68,0.15c0.26,0,0.45-0.06,0.57-0.18
		s0.19-0.25,0.19-0.4c0-0.09-0.02-0.17-0.05-0.24c-0.03-0.07-0.09-0.13-0.16-0.18c-0.07-0.06-0.17-0.11-0.29-0.16
		s-0.27-0.1-0.44-0.16c-0.2-0.06-0.4-0.13-0.6-0.21c-0.19-0.08-0.37-0.18-0.52-0.31c-0.15-0.13-0.27-0.29-0.37-0.48
		c-0.09-0.19-0.14-0.44-0.14-0.74c0-0.3,0.05-0.57,0.15-0.81s0.24-0.45,0.42-0.62s0.4-0.31,0.66-0.4c0.26-0.1,0.55-0.14,0.87-0.14
		c0.3,0,0.61,0.04,0.94,0.12c0.33,0.08,0.64,0.2,0.94,0.36L13.54,38.15z" />
			<path style="fill:#010000;" d="M16.96,42.63h-1.57V36.6h2.5c0.68,0,1.2,0.18,1.56,0.53s0.54,0.85,0.54,1.49
		c0,0.64-0.18,1.14-0.54,1.49s-0.88,0.53-1.56,0.53h-0.93V42.63z M16.96,39.37h0.52c0.58,0,0.86-0.25,0.86-0.75
		c0-0.5-0.29-0.75-0.86-0.75h-0.52V39.37z" />
			<path style="fill:#010000;" d="M24.25,37.93h-1.86v1.01h1.76v1.33h-1.76v1.04h1.86v1.33h-3.43V36.6h3.43V37.93z" />
			<path style="fill:#010000;" d="M28.81,37.93h-1.86v1.01h1.76v1.33h-1.76v1.04h1.86v1.33h-3.43V36.6h3.43V37.93z" />
			<path style="fill:#010000;" d="M29.94,36.6h2.32c0.41,0,0.8,0.08,1.16,0.25c0.36,0.17,0.67,0.39,0.94,0.66
		c0.27,0.27,0.48,0.59,0.64,0.96s0.23,0.75,0.23,1.15c0,0.4-0.08,0.77-0.23,1.14c-0.15,0.37-0.36,0.69-0.63,0.96
		c-0.27,0.28-0.58,0.5-0.94,0.66c-0.36,0.17-0.75,0.25-1.16,0.25h-2.32V36.6z M31.51,41.31h0.36c0.27,0,0.51-0.04,0.73-0.13
		c0.21-0.08,0.39-0.2,0.54-0.35c0.15-0.15,0.26-0.33,0.34-0.53c0.08-0.21,0.12-0.43,0.12-0.68c0-0.24-0.04-0.46-0.12-0.67
		s-0.19-0.39-0.34-0.54c-0.15-0.15-0.33-0.27-0.54-0.35c-0.21-0.08-0.45-0.13-0.72-0.13h-0.36V41.31z" />
		</g>
		<g>
			<path style="fill:#010000;" d="M9.95,239.91c0-0.45,0.08-0.87,0.25-1.25s0.39-0.72,0.69-1.01s0.64-0.51,1.05-0.68
		c0.41-0.16,0.86-0.24,1.35-0.24c0.49,0,0.93,0.08,1.34,0.24c0.41,0.16,0.76,0.39,1.06,0.68s0.53,0.63,0.69,1.01
		c0.17,0.39,0.25,0.8,0.25,1.25c0,0.45-0.08,0.87-0.25,1.25c-0.17,0.39-0.4,0.72-0.69,1.01s-0.65,0.51-1.06,0.68
		c-0.41,0.16-0.86,0.24-1.34,0.24c-0.49,0-0.94-0.08-1.35-0.24c-0.41-0.16-0.76-0.39-1.05-0.68s-0.52-0.62-0.69-1.01
		S9.95,240.35,9.95,239.91z M11.59,239.91c0,0.24,0.05,0.46,0.14,0.66c0.09,0.2,0.21,0.38,0.37,0.53s0.33,0.27,0.54,0.35
		c0.21,0.08,0.42,0.12,0.65,0.12c0.23,0,0.45-0.04,0.65-0.12c0.21-0.08,0.39-0.2,0.54-0.35s0.28-0.33,0.37-0.53
		c0.09-0.2,0.14-0.42,0.14-0.66c0-0.24-0.05-0.46-0.14-0.66c-0.09-0.2-0.21-0.38-0.37-0.53s-0.34-0.27-0.54-0.35
		c-0.21-0.08-0.42-0.12-0.65-0.12c-0.23,0-0.45,0.04-0.65,0.12c-0.21,0.08-0.39,0.2-0.54,0.35s-0.28,0.33-0.37,0.53
		C11.64,239.44,11.59,239.67,11.59,239.91z" />
			<path style="fill:#010000;" d="M19.19,236.89v3.28c0,0.18,0.01,0.36,0.02,0.54c0.01,0.18,0.05,0.35,0.12,0.5
		c0.07,0.15,0.17,0.27,0.32,0.36c0.14,0.09,0.35,0.14,0.61,0.14c0.26,0,0.46-0.05,0.6-0.14c0.14-0.09,0.25-0.21,0.32-0.36
		s0.11-0.32,0.12-0.5c0.01-0.18,0.02-0.36,0.02-0.54v-3.28h1.56v3.5c0,0.94-0.21,1.62-0.64,2.06c-0.43,0.43-1.09,0.65-1.98,0.65
		c-0.89,0-1.55-0.22-1.98-0.65c-0.43-0.43-0.65-1.12-0.65-2.06v-3.5H19.19z" />
			<path style="fill:#010000;" d="M26.43,238.22v4.7h-1.57v-4.7h-1.29v-1.33h4.14v1.33H26.43z" />
			<path style="fill:#010000;" d="M29.99,242.92h-1.57v-6.03h2.5c0.68,0,1.2,0.18,1.56,0.53c0.36,0.35,0.54,0.85,0.54,1.49
		c0,0.64-0.18,1.14-0.54,1.49c-0.36,0.35-0.88,0.53-1.56,0.53h-0.93V242.92z M29.99,239.66h0.52c0.58,0,0.86-0.25,0.86-0.75
		c0-0.5-0.29-0.75-0.86-0.75h-0.52V239.66z" />
			<path style="fill:#010000;" d="M35.41,236.89v3.28c0,0.18,0.01,0.36,0.02,0.54c0.01,0.18,0.05,0.35,0.12,0.5
		c0.07,0.15,0.17,0.27,0.32,0.36c0.14,0.09,0.35,0.14,0.61,0.14c0.26,0,0.46-0.05,0.6-0.14c0.14-0.09,0.25-0.21,0.32-0.36
		s0.11-0.32,0.12-0.5c0.01-0.18,0.02-0.36,0.02-0.54v-3.28h1.56v3.5c0,0.94-0.21,1.62-0.64,2.06c-0.43,0.43-1.09,0.65-1.98,0.65
		c-0.89,0-1.55-0.22-1.98-0.65c-0.43-0.43-0.65-1.12-0.65-2.06v-3.5H35.41z" />
			<path style="fill:#010000;" d="M42.65,238.22v4.7h-1.57v-4.7h-1.29v-1.33h4.14v1.33H42.65z" />
		</g>
		<g>
			<path style="fill:#010000;" d="M13.68,174.02h-1.89v1.01h1.72v1.33h-1.72v2.37h-1.57v-6.03h3.46V174.02z" />
			<path style="fill:#010000;" d="M16.19,172.7v3.28c0,0.18,0.01,0.36,0.02,0.54c0.01,0.18,0.05,0.35,0.12,0.5
		c0.07,0.15,0.17,0.27,0.32,0.36c0.14,0.09,0.35,0.14,0.61,0.14c0.26,0,0.46-0.05,0.6-0.14c0.14-0.09,0.25-0.21,0.32-0.36
		s0.11-0.32,0.12-0.5c0.01-0.18,0.02-0.36,0.02-0.54v-3.28h1.56v3.5c0,0.94-0.21,1.62-0.64,2.06c-0.43,0.43-1.09,0.65-1.98,0.65
		c-0.89,0-1.55-0.22-1.98-0.65c-0.43-0.43-0.65-1.12-0.65-2.06v-3.5H16.19z" />
			<path style="fill:#010000;" d="M21.14,178.73v-6.03h1.57l2.9,3.69v-3.69h1.56v6.03H25.6l-2.9-3.69v3.69H21.14z" />
			<path style="fill:#010000;" d="M32.85,174.71c-0.36-0.44-0.81-0.66-1.34-0.66c-0.23,0-0.45,0.04-0.65,0.13
		c-0.2,0.08-0.37,0.2-0.52,0.35c-0.14,0.15-0.26,0.32-0.34,0.52c-0.08,0.2-0.12,0.42-0.12,0.66c0,0.24,0.04,0.46,0.12,0.66
		c0.08,0.2,0.2,0.38,0.34,0.53c0.15,0.15,0.32,0.27,0.52,0.35s0.41,0.13,0.64,0.13c0.5,0,0.95-0.21,1.35-0.64v1.86l-0.16,0.06
		c-0.24,0.09-0.46,0.15-0.67,0.19s-0.41,0.06-0.62,0.06c-0.42,0-0.81-0.08-1.2-0.24s-0.72-0.38-1.01-0.66
		c-0.29-0.29-0.52-0.62-0.7-1.02s-0.26-0.82-0.26-1.28c0-0.46,0.09-0.89,0.26-1.28s0.41-0.72,0.7-1c0.29-0.28,0.63-0.5,1.01-0.66
		c0.38-0.16,0.79-0.24,1.21-0.24c0.24,0,0.48,0.03,0.71,0.08s0.48,0.13,0.73,0.24V174.71z" />
			<path style="fill:#010000;" d="M36.13,174.02v4.7h-1.57v-4.7h-1.29v-1.33h4.14v1.33H36.13z" />
			<path style="fill:#010000;" d="M39.68,172.7v6.03h-1.57v-6.03H39.68z" />
			<path style="fill:#010000;" d="M40.67,175.71c0-0.45,0.08-0.87,0.25-1.25s0.39-0.72,0.69-1.01c0.29-0.29,0.64-0.51,1.05-0.68
		c0.41-0.16,0.86-0.24,1.35-0.24c0.49,0,0.93,0.08,1.34,0.24s0.76,0.39,1.06,0.68c0.3,0.29,0.53,0.62,0.69,1.01
		c0.17,0.39,0.25,0.8,0.25,1.25c0,0.45-0.08,0.87-0.25,1.25c-0.17,0.39-0.4,0.72-0.69,1.01s-0.65,0.51-1.06,0.68
		s-0.86,0.24-1.34,0.24c-0.49,0-0.94-0.08-1.35-0.24c-0.41-0.16-0.76-0.39-1.05-0.68s-0.52-0.63-0.69-1.01
		C40.76,176.58,40.67,176.16,40.67,175.71z M42.31,175.71c0,0.24,0.05,0.46,0.14,0.66c0.09,0.2,0.21,0.38,0.37,0.53
		c0.15,0.15,0.33,0.27,0.54,0.35c0.21,0.08,0.42,0.12,0.65,0.12c0.23,0,0.45-0.04,0.65-0.12c0.21-0.08,0.39-0.2,0.54-0.35
		c0.16-0.15,0.28-0.33,0.37-0.53c0.09-0.2,0.14-0.42,0.14-0.66c0-0.24-0.05-0.46-0.14-0.66c-0.09-0.2-0.21-0.38-0.37-0.53
		s-0.34-0.27-0.54-0.35c-0.21-0.08-0.42-0.12-0.65-0.12c-0.23,0-0.45,0.04-0.65,0.12c-0.21,0.08-0.39,0.2-0.54,0.35
		s-0.28,0.33-0.37,0.53C42.36,175.25,42.31,175.47,42.31,175.71z" />
			<path style="fill:#010000;" d="M48.35,178.73v-6.03h1.57l2.9,3.69v-3.69h1.56v6.03h-1.56l-2.9-3.69v3.69H48.35z" />
		</g>
		<g>
			<path style="fill:#010000;" d="M9.95,110.05l1.02-6.03h1.55l1.21,3.22l1.2-3.22h1.55l1.02,6.03h-1.56l-0.52-3.47l-1.42,3.47h-0.62
		l-1.35-3.47l-0.52,3.47H9.95z" />
			<path style="fill:#010000;" d="M18.23,107.03c0-0.45,0.08-0.87,0.25-1.25s0.39-0.72,0.69-1.01c0.29-0.29,0.64-0.51,1.05-0.68
		c0.41-0.16,0.86-0.24,1.35-0.24c0.49,0,0.93,0.08,1.34,0.24s0.76,0.39,1.06,0.68c0.3,0.29,0.53,0.62,0.69,1.01
		c0.17,0.39,0.25,0.8,0.25,1.25c0,0.45-0.08,0.87-0.25,1.25c-0.17,0.39-0.4,0.72-0.69,1.01s-0.65,0.51-1.06,0.68
		s-0.86,0.24-1.34,0.24c-0.49,0-0.94-0.08-1.35-0.24c-0.41-0.16-0.76-0.39-1.05-0.68s-0.52-0.63-0.69-1.01
		C18.32,107.9,18.23,107.48,18.23,107.03z M19.87,107.03c0,0.24,0.05,0.46,0.14,0.66c0.09,0.2,0.21,0.38,0.37,0.53
		c0.15,0.15,0.33,0.27,0.54,0.35c0.21,0.08,0.42,0.12,0.65,0.12c0.23,0,0.45-0.04,0.65-0.12c0.21-0.08,0.39-0.2,0.54-0.35
		c0.16-0.15,0.28-0.33,0.37-0.53c0.09-0.2,0.14-0.42,0.14-0.66c0-0.24-0.05-0.46-0.14-0.66c-0.09-0.2-0.21-0.38-0.37-0.53
		s-0.34-0.27-0.54-0.35c-0.21-0.08-0.42-0.12-0.65-0.12c-0.23,0-0.45,0.04-0.65,0.12c-0.21,0.08-0.39,0.2-0.54,0.35
		s-0.28,0.33-0.37,0.53C19.92,106.57,19.87,106.79,19.87,107.03z" />
			<path style="fill:#010000;" d="M25.91,104.01h2.32c0.41,0,0.8,0.08,1.16,0.25c0.36,0.17,0.67,0.39,0.94,0.66
		c0.27,0.27,0.48,0.59,0.64,0.96s0.23,0.75,0.23,1.15c0,0.4-0.08,0.77-0.23,1.14c-0.15,0.37-0.36,0.69-0.63,0.96
		c-0.27,0.28-0.58,0.5-0.94,0.66c-0.36,0.17-0.75,0.25-1.16,0.25h-2.32V104.01z M27.47,108.72h0.36c0.27,0,0.51-0.04,0.73-0.13
		c0.21-0.08,0.39-0.2,0.54-0.35c0.15-0.15,0.26-0.33,0.34-0.53c0.08-0.21,0.12-0.43,0.12-0.68c0-0.24-0.04-0.46-0.12-0.67
		s-0.19-0.39-0.34-0.54c-0.15-0.15-0.33-0.27-0.54-0.35c-0.21-0.08-0.45-0.13-0.72-0.13h-0.36V108.72z" />
			<path style="fill:#010000;" d="M35.63,105.34h-1.86v1.01h1.76v1.33h-1.76v1.04h1.86v1.33h-3.43v-6.03h3.43V105.34z" />
		</g>
		<g>
			<path style="fill:#010000;" d="M42.59,282.46h-2.24l-0.36,1.05h-1.67l2.3-6.03h1.71l2.3,6.03h-1.67L42.59,282.46z M42.18,281.27
		l-0.7-2.01l-0.7,2.01H42.18z" />
		</g>
		<g>
			<path style="fill:#010000;" d="M23.57,323.43c-0.36-0.44-0.81-0.66-1.34-0.66c-0.23,0-0.45,0.04-0.65,0.13
		c-0.2,0.08-0.37,0.2-0.52,0.35s-0.26,0.32-0.34,0.52c-0.08,0.2-0.12,0.42-0.12,0.66c0,0.24,0.04,0.46,0.12,0.66
		c0.08,0.2,0.2,0.38,0.34,0.53c0.15,0.15,0.32,0.27,0.52,0.35c0.2,0.09,0.41,0.13,0.64,0.13c0.5,0,0.95-0.21,1.35-0.64v1.86
		l-0.16,0.06c-0.24,0.08-0.46,0.15-0.67,0.19s-0.41,0.06-0.62,0.06c-0.42,0-0.81-0.08-1.2-0.24s-0.72-0.38-1.01-0.66
		c-0.29-0.29-0.52-0.62-0.7-1.02s-0.26-0.82-0.26-1.28s0.09-0.89,0.26-1.28s0.41-0.72,0.7-1c0.29-0.28,0.63-0.5,1.01-0.66
		c0.38-0.16,0.79-0.24,1.21-0.24c0.24,0,0.48,0.03,0.71,0.08s0.48,0.13,0.73,0.24V323.43z" />
		</g>
		<g>
			<path style="fill:#010000;" d="M61.98,321.41h2.32c0.41,0,0.8,0.08,1.16,0.25c0.36,0.17,0.67,0.39,0.94,0.66
		c0.27,0.27,0.48,0.59,0.64,0.96c0.15,0.37,0.23,0.75,0.23,1.15c0,0.39-0.08,0.77-0.23,1.14s-0.36,0.69-0.63,0.96
		c-0.27,0.28-0.58,0.5-0.94,0.66s-0.75,0.25-1.16,0.25h-2.32V321.41z M63.54,326.12h0.36c0.27,0,0.51-0.04,0.73-0.13
		c0.21-0.08,0.39-0.2,0.54-0.35s0.26-0.33,0.34-0.53s0.12-0.43,0.12-0.68c0-0.24-0.04-0.46-0.12-0.67s-0.19-0.39-0.34-0.54
		s-0.33-0.27-0.54-0.35c-0.21-0.08-0.45-0.13-0.72-0.13h-0.36V326.12z" />
		</g>
		<g>
			<path style="fill:#010000;" d="M109.5,322.74h-1.86v1.01h1.76v1.33h-1.76v1.04h1.86v1.33h-3.43v-6.03h3.43V322.74z" />
		</g>
		<g>
			<path style="fill:#010000;" d="M86.19,277.48h2.34c0.55,0,0.98,0.13,1.26,0.4s0.43,0.65,0.43,1.15c0,0.3-0.05,0.56-0.16,0.76
		c-0.11,0.2-0.28,0.37-0.5,0.51c0.22,0.04,0.41,0.11,0.57,0.2c0.16,0.09,0.29,0.2,0.38,0.32s0.17,0.27,0.21,0.43
		c0.04,0.16,0.06,0.33,0.06,0.51c0,0.28-0.05,0.53-0.15,0.75s-0.24,0.4-0.42,0.55s-0.4,0.26-0.65,0.34
		c-0.26,0.08-0.54,0.11-0.86,0.11h-2.52V277.48z M87.76,279.85h0.29c0.49,0,0.74-0.19,0.74-0.58s-0.25-0.58-0.74-0.58h-0.29V279.85
		z M87.76,282.29h0.34c0.39,0,0.68-0.05,0.85-0.15s0.26-0.26,0.26-0.49c0-0.22-0.08-0.39-0.26-0.49s-0.45-0.15-0.85-0.15h-0.34
		V282.29z" />
		</g>
		<line style="fill:none;stroke:#000000;stroke-width:2;stroke-miterlimit:10;" x1="9.32" y1="32.72" x2="134.05" y2="32.72" />
		<line style="fill:none;stroke:#000000;stroke-width:2;stroke-miterlimit:10;" x1="9.32" y1="100.76" x2="134.05" y2="100.76" />
		<line style="fill:none;stroke:#000000;stroke-width:2;stroke-miterlimit:10;" x1="9.32" y1="168.79" x2="134.05" y2="168.79" />
		<line style="fill:none;stroke:#000000;stroke-width:2;stroke-miterlimit:10;" x1="9.32" y1="233.28" x2="134.05" y2="233.28" />
		<line style="fill:none;stroke:#000000;stroke-width:2;stroke-miterlimit:10;" x1="9.32" y1="338.74" x2="134.05" y2="338.74" />
	</g>
	<g style="display:none" inkscape:label="components">
		<!-- inputs -->
		<circle inkscape:label="Speed" style="fill:#00FF00;" cx="13" cy="24.25" r="8.5" />
		<circle inkscape:label="Mode" style="fill:#00FF00;" cx="13" cy="48.25" r="8.5" />
		<circle inkscape:label="Function" style="fill:#00FF00;" cx="13" cy="72.25" r="8.5" />
		<!-- params -->
		<circle inkscape:label="Speed" style="fill:#FF0000;" cx="37.5" cy="24.25" r="5.67" />
		<circle inkscape:label="Mode" style="fill:#FF0000;" cx="37.5" cy="48.25" r="14.17" />
		<circle inkscape:label="Function" style="fill:#FF0000;" cx="37.5" cy="72.25" r="14.17" />
		<!-- outputs -->
		<circle inkscape:label="TriggerA" style="fill:#0000FF;" cx="16.83" cy="93" r="8.5" />
		<circle inkscape:label="TriggerB" style="fill:#0000FF;" cx="33.66" cy="93" r="8.5" />
		<circle inkscape:label="TriggerC" style="fill:#0000FF;" cx="10" cy="108.5" r="8.5" />
		<circle inkscape:label="TriggerD" style="fill:#0000FF;" cx="25.5" cy="108.5" r="8.5" />
		<circle inkscape:label="TriggerE" style="fill:#0000FF;" cx="40.5" cy="108.5" r="8.5" />
		<!-- leds -->
		<circle inkscape:label="TriggerA" style="fill:#FF00FF;" cx="19.33" cy="99" r="4.25" />
		<circle inkscape:label="TriggerB" style="fill:#FF00FF;" cx="36.13" cy="99" r="4.25" />
		<circle inkscape:label="TriggerC" style="fill:#FF00FF;" cx="12.5" cy="113" r="4.25" />
		<circle inkscape:label="TriggerD" style="fill:#FF00FF;" cx="27.25" cy="113" r="4.25" />
		<circle inkscape:label="TriggerE" style="fill:#FF00FF;" cx="43" cy="113" r="4.25" />
	</g>
</svg>
